<svg width="45" height="45" viewBox="0 0 45 45" fill="none" xmlns="http://www.w3.org/2000/svg">
<path d="M35.1121 16.6368L33.0955 12.3285L28.7871 10.3118L33.0955 8.29515L35.1121 3.98682L37.1288 8.29515L41.4371 10.3118L37.1288 12.3285L35.1121 16.6368ZM38.9621 29.8827L37.5981 26.9841L34.6996 25.6201L37.5981 24.2561L38.9621 21.3577L40.3261 24.2561L43.2246 25.6201L40.3261 26.9841L38.9621 29.8827ZM14.9913 40.6535L14.533 36.4368C14.1052 36.3757 13.6621 36.2382 13.2038 36.0243C12.7455 35.8104 12.3483 35.5507 12.0121 35.2451L8.43714 36.7577L4.40381 30.1576L7.88714 27.866C7.73436 27.3465 7.65798 26.8882 7.65798 26.491C7.65798 26.0938 7.73436 25.6354 7.88714 25.116L4.40381 22.8243L8.43714 16.2243L12.0121 17.7368C12.3483 17.4313 12.7455 17.1715 13.2038 16.9577C13.6621 16.7438 14.1052 16.6063 14.533 16.5451L14.9947 12.3285H22.6913L23.1496 16.5451C23.5774 16.6063 24.0205 16.7438 24.4788 16.9577C24.9371 17.1715 25.3344 17.4313 25.6705 17.7368L29.2455 16.2243L33.2788 22.8243L29.7955 25.116C29.9483 25.6354 30.0246 26.0938 30.0246 26.491C30.0246 26.8882 29.9483 27.3465 29.7955 27.866L33.2788 30.1576L29.2455 36.7577L25.6705 35.2451C25.3344 35.5507 24.9371 35.8104 24.4788 36.0243C24.0205 36.2382 23.5774 36.3757 23.1496 36.4368L22.6879 40.6535H14.9913ZM18.8413 31.7618C20.3691 31.7618 21.6295 31.2653 22.6226 30.2722C23.6156 29.2792 24.1121 28.0188 24.1121 26.491C24.1121 24.9632 23.6156 23.7028 22.6226 22.7097C21.6295 21.7167 20.3691 21.2201 18.8413 21.2201C17.3135 21.2201 16.0531 21.7167 15.0601 22.7097C14.067 23.7028 13.5705 24.9632 13.5705 26.491C13.5705 28.0188 14.067 29.2792 15.0601 30.2722C16.0531 31.2653 17.3135 31.7618 18.8413 31.7618ZM18.8413 29.0118C18.108 29.0118 17.5045 28.775 17.0309 28.3014C16.5573 27.8278 16.3205 27.2243 16.3205 26.491C16.3205 25.7577 16.5573 25.1542 17.0309 24.6806C17.5045 24.207 18.108 23.9701 18.8413 23.9701C19.5746 23.9701 20.1781 24.207 20.6517 24.6806C21.1253 25.1542 21.3621 25.7577 21.3621 26.491C21.3621 27.2243 21.1253 27.8278 20.6517 28.3014C20.1781 28.775 19.5746 29.0118 18.8413 29.0118ZM17.283 37.9035H20.3996L20.7663 34.4202C21.6524 34.2063 22.4621 33.9007 23.1955 33.5035C23.9288 33.1063 24.5975 32.5868 25.2015 31.9452L28.1913 33.2743L29.7038 30.891L26.8621 28.8743C27.1983 28.1104 27.3663 27.316 27.3663 26.491C27.3663 25.666 27.1983 24.8715 26.8621 24.1077L29.7038 22.091L28.1913 19.7077L25.2015 21.0368C24.5975 20.3951 23.9288 19.8757 23.1955 19.4785C22.4621 19.0813 21.6524 18.7757 20.7663 18.5618L20.3996 15.0785H17.283L16.9163 18.5618C16.0302 18.7757 15.2205 19.0813 14.4871 19.4785C13.7538 19.8757 13.0851 20.3951 12.4812 21.0368L9.49131 19.7077L7.97881 22.091L10.8205 24.1077C10.4844 24.8715 10.3163 25.666 10.3163 26.491C10.3163 27.316 10.4844 28.1104 10.8205 28.8743L7.97881 30.891L9.49131 33.2743L12.4812 31.9452C13.0851 32.5868 13.7538 33.1063 14.4871 33.5035C15.2205 33.9007 16.0302 34.2063 16.9163 34.4202L17.283 37.9035Z" fill="white"/>
</svg>
