<svg width="38" height="38" viewBox="0 0 38 38" fill="none" xmlns="http://www.w3.org/2000/svg">
<path d="M17.9749 32.9785L25.7666 16.4785H19.8082V5.47848L12.0166 21.9785H17.9749V32.9785ZM18.7999 37.6535C16.2027 37.6535 13.7888 37.1875 11.5582 36.2556C9.32766 35.3236 7.38739 34.0326 5.73739 32.3826C4.08739 30.7326 2.79641 28.7924 1.86447 26.5618C0.932525 24.3313 0.466553 21.9174 0.466553 19.3201C0.466553 16.7535 0.932525 14.3549 1.86447 12.1243C2.79641 9.89376 4.08739 7.95348 5.73739 6.30348C7.38739 4.65348 9.32766 3.35487 11.5582 2.40765C13.7888 1.46043 16.2027 0.986816 18.7999 0.986816C21.3666 0.986816 23.7652 1.46043 25.9957 2.40765C28.2263 3.35487 30.1666 4.65348 31.8166 6.30348C33.4666 7.95348 34.7652 9.89376 35.7124 12.1243C36.6596 14.3549 37.1332 16.7535 37.1332 19.3201C37.1332 21.9174 36.6596 24.3313 35.7124 26.5618C34.7652 28.7924 33.4666 30.7326 31.8166 32.3826C30.1666 34.0326 28.2263 35.3236 25.9957 36.2556C23.7652 37.1875 21.3666 37.6535 18.7999 37.6535ZM18.7999 34.9035C23.2304 34.9035 26.9353 33.4139 29.9145 30.4347C32.8936 27.4556 34.3832 23.7507 34.3832 19.3201C34.3832 14.8896 32.8936 11.1847 29.9145 8.20557C26.9353 5.2264 23.2304 3.73682 18.7999 3.73682C14.3693 3.73682 10.6645 5.2264 7.6853 8.20557C4.70614 11.1847 3.21655 14.8896 3.21655 19.3201C3.21655 23.7507 4.70614 27.4556 7.6853 30.4347C10.6645 33.4139 14.3693 34.9035 18.7999 34.9035Z" fill="white"/>
</svg>
