<svg width="45" height="17" viewBox="0 0 45 17" fill="none" xmlns="http://www.w3.org/2000/svg">
<path d="M12.2371 10.7159C11.8097 10.7159 11.4514 10.5714 11.1623 10.2822C10.8732 9.99312 10.7286 9.63486 10.7286 9.20746V2.10881C10.7286 1.68141 10.8732 1.32315 11.1623 1.03403C11.4514 0.744903 11.8097 0.600342 12.2371 0.600342H17.5611C17.9885 0.600342 18.3467 0.744903 18.6358 1.03403C18.925 1.32315 19.0695 1.68141 19.0695 2.10881V9.20746C19.0695 9.63486 18.925 9.99312 18.6358 10.2822C18.3467 10.5714 17.9885 10.7159 17.5611 10.7159H12.2371ZM12.8582 8.58633H16.9399V2.72994H12.8582V8.58633ZM2.13762 10.7159C1.71022 10.7159 1.35196 10.5714 1.06283 10.2822C0.773711 9.99312 0.62915 9.63486 0.62915 9.20746V2.10881C0.62915 1.68141 0.773711 1.32315 1.06283 1.03403C1.35196 0.744903 1.71022 0.600342 2.13762 0.600342H7.46161C7.88901 0.600342 8.24727 0.744903 8.53639 1.03403C8.82551 1.32315 8.97007 1.68141 8.97007 2.10881V3.61727H6.84048V2.72994H2.75875V8.58633H6.84048V7.699H8.97007V9.19344C8.97007 9.61688 8.82551 9.97648 8.53639 10.2723C8.24727 10.568 7.88901 10.7159 7.46161 10.7159H2.13762ZM20.8281 16.0399V11.8695C20.8281 11.4421 20.9726 11.0838 21.2617 10.7947C21.5509 10.5056 21.9091 10.361 22.3365 10.361H26.152V8.05393H20.8281V5.92433H26.7732C27.2006 5.92433 27.5588 6.0689 27.848 6.35802C28.1371 6.64714 28.2816 7.0054 28.2816 7.4328V10.0948C28.2816 10.5222 28.1371 10.8805 27.848 11.1696C27.5588 11.4587 27.2006 11.6033 26.7732 11.6033H22.9576V13.9103H28.2816V16.0399H20.8281Z" fill="white"/>
<path d="M37.5529 15.7979L30.7354 8.9803L31.9284 7.78722L37.5529 13.4117L43.1775 7.78722L44.3705 8.9803L37.5529 15.7979ZM37.5529 8.61102L30.7354 1.79342L31.9284 0.600342L37.5529 6.22486L43.1775 0.600342L44.3705 1.79342L37.5529 8.61102Z" fill="white"/>
</svg>
