<svg width="45" height="45" viewBox="0 0 45 45" fill="none" xmlns="http://www.w3.org/2000/svg">
<path d="M17.2 40.6534V35.9784C13.9611 34.8478 11.318 32.8693 9.27078 30.0429C7.22356 27.2166 6.19995 24.0006 6.19995 20.395C6.19995 18.1034 6.63537 15.9568 7.5062 13.9554C8.37703 11.954 9.55342 10.2124 11.0354 8.73044C12.5173 7.24849 14.259 6.0721 16.2604 5.20127C18.2618 4.33044 20.393 3.89502 22.6541 3.89502C24.9152 3.89502 27.0541 4.33044 29.0708 5.20127C31.0875 6.0721 32.8444 7.24849 34.3416 8.73044C35.8388 10.2124 37.0229 11.954 37.8937 13.9554C38.7645 15.9568 39.2 18.1034 39.2 20.395C39.2 24.0006 38.1687 27.2013 36.1062 29.9971C34.0437 32.7929 31.4083 34.7714 28.2 35.9325V40.6534H25.45V36.6659C24.9916 36.727 24.5333 36.7804 24.075 36.8263C23.6166 36.8721 23.143 36.895 22.6541 36.895C22.1958 36.895 21.7375 36.8721 21.2791 36.8263C20.8208 36.7804 20.3777 36.727 19.95 36.6659V40.6534H17.2ZM22.7 34.2367C26.5194 34.2367 29.7659 32.8999 32.4395 30.2263C35.1131 27.5527 36.45 24.3061 36.45 20.4867C36.45 16.6672 35.1131 13.4207 32.4395 10.7471C29.7659 8.07349 26.5194 6.73669 22.7 6.73669C18.8805 6.73669 15.634 8.07349 12.9604 10.7471C10.2868 13.4207 8.94995 16.6672 8.94995 20.4867C8.94995 24.3061 10.2868 27.5527 12.9604 30.2263C15.634 32.8999 18.8805 34.2367 22.7 34.2367Z" fill="white"/>
<path d="M23.7993 9.93311V12.3306C24.6026 12.4511 25.3089 12.7356 25.9116 13.1899L26.1489 13.3804C26.6849 13.8397 27.1018 14.4028 27.3989 15.0669L27.4995 15.2935L27.272 15.3911L25.6753 16.0747L25.4526 16.1704L25.356 15.9487C25.1359 15.4458 24.8573 15.0786 24.5269 14.8315L24.3823 14.7329C23.9861 14.4884 23.4506 14.356 22.7573 14.356C22.0235 14.356 21.445 14.5018 21.0054 14.7769L20.8257 14.9028C20.3754 15.253 20.1499 15.7219 20.1499 16.3354C20.1499 16.9825 20.4002 17.4964 20.9116 17.897L21.1343 18.0552C21.7063 18.427 22.6528 18.8237 23.9976 19.2388L24.478 19.4009C25.5639 19.7991 26.4044 20.342 26.98 21.0415L27.0991 21.1938C27.6783 21.9691 27.9614 22.921 27.9614 24.0337C27.9614 25.2037 27.6381 26.1813 26.9761 26.9458L26.8384 27.0962C26.124 27.8394 25.1023 28.315 23.7993 28.5444V30.9487H21.6011V28.5083C20.7066 28.3249 19.9362 27.9896 19.2983 27.4907L19.0142 27.2495C18.3773 26.665 17.8989 25.9478 17.5776 25.103L17.4497 24.7339L17.3823 24.52L17.5894 24.4351L19.186 23.7788L19.4233 23.6821L19.5083 23.9233C19.8197 24.8025 20.2608 25.4366 20.8198 25.8472L21.0356 25.9917C21.5525 26.308 22.1614 26.4692 22.8706 26.4692C23.7413 26.4692 24.4365 26.2526 24.9741 25.8364L25.1587 25.6772C25.561 25.2891 25.7632 24.785 25.7632 24.147C25.7631 23.4629 25.5779 22.9388 25.2241 22.5503L25.063 22.3921C24.5804 21.9709 23.6386 21.5175 22.1978 21.0435V21.0444C20.8936 20.6278 19.8771 20.0765 19.1675 19.3804L19.0288 19.2388C18.3078 18.4669 17.9517 17.5024 17.9517 16.3638C17.9517 15.2606 18.3101 14.3239 19.0317 13.5718L19.1694 13.4351C19.8207 12.8167 20.6351 12.4475 21.6011 12.3237V9.93311H23.7993Z" fill="white" stroke="white" stroke-width="0.487786"/>
</svg>
