<svg width="45" height="45" viewBox="0 0 45 45" fill="none" xmlns="http://www.w3.org/2000/svg">
<path d="M21.1637 23.9247C20.8292 23.9247 20.5488 23.8116 20.3225 23.5853C20.0963 23.359 19.9831 23.0786 19.9831 22.7442V17.1886C19.9831 16.8541 20.0963 16.5737 20.3225 16.3475C20.5488 16.1212 20.8292 16.0081 21.1637 16.0081H25.3303C25.6648 16.0081 25.9452 16.1212 26.1715 16.3475C26.3977 16.5737 26.5109 16.8541 26.5109 17.1886V22.7442C26.5109 23.0786 26.3977 23.359 26.1715 23.5853C25.9452 23.8116 25.6648 23.9247 25.3303 23.9247H21.1637ZM21.6498 22.258H24.8442V17.6747H21.6498V22.258ZM13.2597 23.9247C12.9252 23.9247 12.6448 23.8116 12.4185 23.5853C12.1922 23.359 12.0791 23.0786 12.0791 22.7442V17.1886C12.0791 16.8541 12.1922 16.5737 12.4185 16.3475C12.6448 16.1212 12.9252 16.0081 13.2597 16.0081H17.4263C17.7608 16.0081 18.0412 16.1212 18.2675 16.3475C18.4937 16.5737 18.6069 16.8541 18.6069 17.1886V18.3692H16.9402V17.6747H13.7458V22.258H16.9402V21.5636H18.6069V22.7332C18.6069 23.0646 18.4937 23.346 18.2675 23.5775C18.0412 23.809 17.7608 23.9247 17.4263 23.9247H13.2597ZM27.8871 28.0914V24.8275C27.8871 24.493 28.0003 24.2126 28.2266 23.9863C28.4528 23.7601 28.7332 23.6469 29.0677 23.6469H32.0538V21.8414H27.8871V20.1747H32.5399C32.8744 20.1747 33.1548 20.2879 33.3811 20.5141C33.6073 20.7404 33.7205 21.0208 33.7205 21.3553V23.4386C33.7205 23.7731 33.6073 24.0535 33.3811 24.2797C33.1548 24.506 32.8744 24.6191 32.5399 24.6191H29.5538V26.4247H33.7205V28.0914H27.8871Z" fill="white"/>
<circle cx="22.8992" cy="22.0499" r="17.599" stroke="white" stroke-width="2.74107"/>
</svg>
