<svg width="22" height="25" viewBox="0 0 22 25" fill="none" xmlns="http://www.w3.org/2000/svg">
<path d="M2.25 24.1666C1.78333 24.1666 1.375 23.9916 1.025 23.6416C0.675 23.2916 0.5 22.8833 0.5 22.4166V4.33325C0.5 3.86659 0.675 3.45825 1.025 3.10825C1.375 2.75825 1.78333 2.58325 2.25 2.58325H4.14583V0.833252H6.04167V2.58325H15.9583V0.833252H17.8542V2.58325H19.75C20.2167 2.58325 20.625 2.75825 20.975 3.10825C21.325 3.45825 21.5 3.86659 21.5 4.33325V22.4166C21.5 22.8833 21.325 23.2916 20.975 23.6416C20.625 23.9916 20.2167 24.1666 19.75 24.1666H2.25ZM2.25 22.4166H19.75V9.87492H2.25V22.4166ZM2.25 8.12492H19.75V4.33325H2.25V8.12492Z" fill="#001E2E"/>
<path d="M10.4086 21.0117V19.8423C9.87958 19.7495 9.44569 19.5476 9.10692 19.2367C8.76816 18.9258 8.52453 18.5337 8.37603 18.0603L9.15565 17.7401C9.31343 18.1856 9.54082 18.5174 9.83781 18.7355C10.1348 18.9536 10.4921 19.0627 10.9098 19.0627C11.3553 19.0627 11.7219 18.9513 12.0096 18.7286C12.2973 18.5058 12.4412 18.1995 12.4412 17.8097C12.4412 17.4014 12.3136 17.0858 12.0583 16.8631C11.8031 16.6403 11.3228 16.4129 10.6174 16.1809C9.94919 15.9674 9.45033 15.6844 9.12085 15.3317C8.79137 14.979 8.62662 14.5381 8.62662 14.0091C8.62662 13.4987 8.79137 13.0717 9.12085 12.7283C9.45033 12.3849 9.87958 12.19 10.4086 12.1436V10.9881H11.2439V12.1436C11.6616 12.19 12.0212 12.3269 12.3228 12.5543C12.6245 12.7817 12.8542 13.0717 13.012 13.4244L12.2323 13.7585C12.1024 13.4615 11.9284 13.2457 11.7103 13.1112C11.4922 12.9766 11.2068 12.9093 10.8541 12.9093C10.4272 12.9093 10.0884 13.0068 9.83781 13.2017C9.58722 13.3966 9.46193 13.6611 9.46193 13.9952C9.46193 14.3479 9.60114 14.6333 9.87958 14.8514C10.158 15.0695 10.6731 15.2946 11.4249 15.5266C12.056 15.7215 12.5224 16.0022 12.824 16.3688C13.1257 16.7354 13.2765 17.1972 13.2765 17.7541C13.2765 18.3388 13.1048 18.8098 12.7614 19.1671C12.418 19.5244 11.9121 19.7541 11.2439 19.8562V21.0117H10.4086Z" fill="#001E2E"/>
<path fill-rule="evenodd" clip-rule="evenodd" d="M10.1704 21.2499V20.0367C9.68974 19.9241 9.27881 19.7178 8.94587 19.4122C8.57384 19.0708 8.30878 18.6417 8.14877 18.1316L8.08333 17.9231L9.29663 17.4247L9.38017 17.6606C9.52649 18.0738 9.72986 18.3607 9.9788 18.5436C10.2296 18.7277 10.5358 18.8245 10.9098 18.8245C11.3146 18.8245 11.6265 18.7239 11.8638 18.5402C12.0886 18.3662 12.203 18.1319 12.203 17.8097C12.203 17.4547 12.0945 17.2108 11.9017 17.0425C11.6856 16.8539 11.2461 16.6385 10.544 16.4075C9.85385 16.1869 9.3137 15.887 8.94679 15.4943C8.57198 15.0931 8.38844 14.5922 8.38844 14.0091C8.38844 13.4421 8.57366 12.9546 8.94897 12.5634C9.27529 12.2233 9.68627 12.0153 10.1704 11.9339V10.7499H11.4821V11.9384C11.8508 12.0078 12.1804 12.1486 12.4662 12.3641C12.8007 12.6163 13.0556 12.9386 13.2294 13.3271L13.3282 13.548L12.1089 14.0706L12.0141 13.854C11.8985 13.5896 11.7524 13.417 11.5852 13.3139C11.4163 13.2097 11.1786 13.1475 10.8541 13.1475C10.462 13.1475 10.1805 13.2369 9.98405 13.3897C9.79492 13.5368 9.70012 13.7301 9.70012 13.9952C9.70012 14.2744 9.80547 14.4908 10.0265 14.6639C10.2676 14.8528 10.7455 15.0676 11.4951 15.299C12.154 15.5025 12.6672 15.8034 13.008 16.2175C13.3505 16.6339 13.5147 17.152 13.5147 17.7541C13.5147 18.3885 13.3267 18.9226 12.9331 19.3322C12.5806 19.699 12.0896 19.9348 11.4821 20.0562V21.2499H10.1704ZM11.2439 19.8562C11.9121 19.7541 12.418 19.5244 12.7614 19.1671C13.1048 18.8098 13.2765 18.3388 13.2765 17.7541C13.2765 17.1972 13.1257 16.7354 12.824 16.3688C12.5224 16.0022 12.056 15.7215 11.4249 15.5266C10.6731 15.2946 10.158 15.0695 9.87958 14.8514C9.60114 14.6333 9.46193 14.3479 9.46193 13.9952C9.46193 13.6611 9.58722 13.3966 9.83781 13.2017C10.0884 13.0068 10.4272 12.9093 10.8541 12.9093C11.2068 12.9093 11.4922 12.9766 11.7103 13.1112C11.9284 13.2457 12.1024 13.4615 12.2323 13.7585L13.012 13.4244C12.979 13.3508 12.9429 13.2798 12.9037 13.2117C12.7551 12.9533 12.5615 12.7342 12.3228 12.5543C12.0212 12.3269 11.6616 12.19 11.2439 12.1436V10.9881H10.4086V12.1436C9.87958 12.19 9.45033 12.3849 9.12085 12.7283C8.79137 13.0717 8.62662 13.4987 8.62662 14.0091C8.62662 14.5381 8.79137 14.979 9.12085 15.3317C9.45033 15.6844 9.94919 15.9674 10.6174 16.1809C11.3228 16.4129 11.8031 16.6403 12.0583 16.8631C12.3136 17.0858 12.4412 17.4014 12.4412 17.8097C12.4412 18.1995 12.2973 18.5058 12.0096 18.7286C11.7219 18.9513 11.3553 19.0627 10.9098 19.0627C10.4921 19.0627 10.1348 18.9536 9.83781 18.7355C9.59226 18.5552 9.39429 18.2972 9.2439 17.9614C9.21239 17.891 9.18298 17.8173 9.15565 17.7401L8.37603 18.0603C8.52453 18.5337 8.76816 18.9258 9.10692 19.2367C9.44569 19.5476 9.87958 19.7495 10.4086 19.8423V21.0117H11.2439V19.8562Z" fill="#001E2E"/>
</svg>
