<svg width="37" height="37" viewBox="0 0 37 37" fill="none" xmlns="http://www.w3.org/2000/svg">
<path d="M9.87009 20.5146C9.51069 20.5146 9.20942 20.393 8.9663 20.1499C8.72317 19.9068 8.60161 19.6055 8.60161 19.2461V13.2768C8.60161 12.9174 8.72317 12.6161 8.9663 12.373C9.20942 12.1299 9.51069 12.0083 9.87009 12.0083H14.3471C14.7065 12.0083 15.0077 12.1299 15.2509 12.373C15.494 12.6161 15.6156 12.9174 15.6156 13.2768V19.2461C15.6156 19.6055 15.494 19.9068 15.2509 20.1499C15.0077 20.393 14.7065 20.5146 14.3471 20.5146H9.87009ZM10.3924 18.7238H13.8248V13.7991H10.3924V18.7238ZM1.37737 20.5146C1.01797 20.5146 0.716701 20.393 0.473575 20.1499C0.230449 19.9068 0.108887 19.6055 0.108887 19.2461V13.2768C0.108887 12.9174 0.230449 12.6161 0.473575 12.373C0.716701 12.1299 1.01797 12.0083 1.37737 12.0083H5.85436C6.21377 12.0083 6.51503 12.1299 6.75816 12.373C7.00128 12.6161 7.12284 12.9174 7.12284 13.2768V14.5453H5.33205V13.7991H1.89968V18.7238H5.33205V17.9776H7.12284V19.2343C7.12284 19.5904 7.00128 19.8928 6.75816 20.1415C6.51503 20.3902 6.21377 20.5146 5.85436 20.5146H1.37737ZM17.0943 24.9916V21.4846C17.0943 21.1252 17.2159 20.8239 17.459 20.5808C17.7021 20.3377 18.0034 20.2161 18.3628 20.2161H21.5713V18.2761H17.0943V16.4853H22.0936C22.453 16.4853 22.7543 16.6069 22.9974 16.85C23.2406 17.0931 23.3621 17.3944 23.3621 17.7538V19.9923C23.3621 20.3517 23.2406 20.6529 22.9974 20.8961C22.7543 21.1392 22.453 21.2608 22.0936 21.2608H18.8851V23.2008H23.3621V24.9916H17.0943Z" fill="#414141"/>
<path d="M31.1583 24.7881L25.4253 19.0551L26.4286 18.0518L31.1583 22.7815L35.888 18.0518L36.8912 19.0551L31.1583 24.7881ZM31.1583 18.7445L25.4253 13.0116L26.4286 12.0083L31.1583 16.738L35.888 12.0083L36.8912 13.0116L31.1583 18.7445Z" fill="#414141"/>
</svg>
